<mxfile host="Electron" agent="Mozilla/5.0 (Windows NT 10.0; Win64; x64) AppleWebKit/537.36 (KHTML, like Gecko) draw.io/24.7.8 Chrome/128.0.6613.36 Electron/32.0.1 Safari/537.36" version="24.7.8">
  <diagram name="Page-1" id="kOesoYAD39B32XZ6X8mA">
    <mxGraphModel dx="2250" dy="892" grid="1" gridSize="10" guides="1" tooltips="1" connect="1" arrows="1" fold="1" page="1" pageScale="1" pageWidth="850" pageHeight="1100" math="0" shadow="0">
      <root>
        <mxCell id="0" />
        <mxCell id="1" parent="0" />
        <mxCell id="DzdwVPKW61eDhLBlSxj8-23" style="edgeStyle=orthogonalEdgeStyle;rounded=0;orthogonalLoop=1;jettySize=auto;html=1;exitX=0.5;exitY=0;exitDx=0;exitDy=0;entryX=0.5;entryY=1;entryDx=0;entryDy=0;endArrow=none;endFill=0;" parent="1" source="DzdwVPKW61eDhLBlSxj8-2" target="DzdwVPKW61eDhLBlSxj8-22" edge="1">
          <mxGeometry relative="1" as="geometry" />
        </mxCell>
        <mxCell id="DzdwVPKW61eDhLBlSxj8-50" style="edgeStyle=orthogonalEdgeStyle;rounded=0;orthogonalLoop=1;jettySize=auto;html=1;exitX=0.5;exitY=0;exitDx=0;exitDy=0;entryX=0.5;entryY=1;entryDx=0;entryDy=0;endArrow=none;endFill=0;" parent="1" source="DzdwVPKW61eDhLBlSxj8-2" target="DzdwVPKW61eDhLBlSxj8-49" edge="1">
          <mxGeometry relative="1" as="geometry" />
        </mxCell>
        <mxCell id="DzdwVPKW61eDhLBlSxj8-2" value="Airport" style="whiteSpace=wrap;html=1;align=center;" parent="1" vertex="1">
          <mxGeometry x="375" y="530" width="100" height="40" as="geometry" />
        </mxCell>
        <mxCell id="DzdwVPKW61eDhLBlSxj8-8" style="edgeStyle=orthogonalEdgeStyle;rounded=0;orthogonalLoop=1;jettySize=auto;html=1;exitX=0.5;exitY=1;exitDx=0;exitDy=0;entryX=0.5;entryY=0;entryDx=0;entryDy=0;endArrow=ERzeroToOne;endFill=0;" parent="1" source="DzdwVPKW61eDhLBlSxj8-5" target="DzdwVPKW61eDhLBlSxj8-6" edge="1">
          <mxGeometry relative="1" as="geometry" />
        </mxCell>
        <mxCell id="DzdwVPKW61eDhLBlSxj8-9" style="edgeStyle=orthogonalEdgeStyle;rounded=0;orthogonalLoop=1;jettySize=auto;html=1;exitX=1;exitY=0.5;exitDx=0;exitDy=0;entryX=0.25;entryY=1;entryDx=0;entryDy=0;endArrow=ERzeroToMany;endFill=0;" parent="1" source="DzdwVPKW61eDhLBlSxj8-5" target="DzdwVPKW61eDhLBlSxj8-2" edge="1">
          <mxGeometry relative="1" as="geometry" />
        </mxCell>
        <mxCell id="DzdwVPKW61eDhLBlSxj8-5" value="located" style="shape=rhombus;perimeter=rhombusPerimeter;whiteSpace=wrap;html=1;align=center;" parent="1" vertex="1">
          <mxGeometry x="210" y="655" width="120" height="60" as="geometry" />
        </mxCell>
        <mxCell id="DzdwVPKW61eDhLBlSxj8-6" value="City" style="whiteSpace=wrap;html=1;align=center;" parent="1" vertex="1">
          <mxGeometry x="220" y="745" width="100" height="40" as="geometry" />
        </mxCell>
        <mxCell id="DzdwVPKW61eDhLBlSxj8-12" style="edgeStyle=orthogonalEdgeStyle;rounded=0;orthogonalLoop=1;jettySize=auto;html=1;exitX=0;exitY=0.5;exitDx=0;exitDy=0;entryX=1;entryY=0.25;entryDx=0;entryDy=0;endArrow=ERmandOne;endFill=0;" parent="1" source="DzdwVPKW61eDhLBlSxj8-10" target="DzdwVPKW61eDhLBlSxj8-2" edge="1">
          <mxGeometry relative="1" as="geometry" />
        </mxCell>
        <mxCell id="DzdwVPKW61eDhLBlSxj8-13" style="edgeStyle=orthogonalEdgeStyle;rounded=0;orthogonalLoop=1;jettySize=auto;html=1;exitX=1;exitY=0.5;exitDx=0;exitDy=0;entryX=0;entryY=0.5;entryDx=0;entryDy=0;endArrow=ERzeroToMany;endFill=0;" parent="1" source="DzdwVPKW61eDhLBlSxj8-10" target="DzdwVPKW61eDhLBlSxj8-11" edge="1">
          <mxGeometry relative="1" as="geometry" />
        </mxCell>
        <mxCell id="DzdwVPKW61eDhLBlSxj8-10" value="has" style="shape=rhombus;perimeter=rhombusPerimeter;whiteSpace=wrap;html=1;align=center;" parent="1" vertex="1">
          <mxGeometry x="640" y="435" width="120" height="60" as="geometry" />
        </mxCell>
        <mxCell id="DzdwVPKW61eDhLBlSxj8-19" style="edgeStyle=orthogonalEdgeStyle;rounded=0;orthogonalLoop=1;jettySize=auto;html=1;exitX=0.5;exitY=1;exitDx=0;exitDy=0;entryX=1;entryY=1;entryDx=0;entryDy=0;endArrow=none;endFill=0;" parent="1" source="DzdwVPKW61eDhLBlSxj8-11" target="DzdwVPKW61eDhLBlSxj8-21" edge="1">
          <mxGeometry relative="1" as="geometry">
            <mxPoint x="825.3553390593274" y="419.14213562373106" as="targetPoint" />
          </mxGeometry>
        </mxCell>
        <mxCell id="DzdwVPKW61eDhLBlSxj8-20" style="edgeStyle=orthogonalEdgeStyle;rounded=0;orthogonalLoop=1;jettySize=auto;html=1;exitX=0.5;exitY=1;exitDx=0;exitDy=0;entryX=0;entryY=1;entryDx=0;entryDy=0;endArrow=none;endFill=0;" parent="1" source="DzdwVPKW61eDhLBlSxj8-11" target="DzdwVPKW61eDhLBlSxj8-14" edge="1">
          <mxGeometry relative="1" as="geometry" />
        </mxCell>
        <mxCell id="DzdwVPKW61eDhLBlSxj8-11" value="Terminal" style="shape=ext;margin=3;double=1;whiteSpace=wrap;html=1;align=center;" parent="1" vertex="1">
          <mxGeometry x="800" y="445" width="100" height="40" as="geometry" />
        </mxCell>
        <mxCell id="DzdwVPKW61eDhLBlSxj8-14" value="&lt;span style=&quot;border-bottom: 1px dotted&quot;&gt;airport&lt;/span&gt;" style="ellipse;whiteSpace=wrap;html=1;align=center;" parent="1" vertex="1">
          <mxGeometry x="860" y="510" width="100" height="40" as="geometry" />
        </mxCell>
        <mxCell id="DzdwVPKW61eDhLBlSxj8-21" value="terminal_id" style="ellipse;whiteSpace=wrap;html=1;align=center;fontStyle=4;" parent="1" vertex="1">
          <mxGeometry x="740" y="510" width="100" height="40" as="geometry" />
        </mxCell>
        <mxCell id="DzdwVPKW61eDhLBlSxj8-22" value="airport_id" style="ellipse;whiteSpace=wrap;html=1;align=center;fontStyle=4;" parent="1" vertex="1">
          <mxGeometry x="310" y="445" width="100" height="40" as="geometry" />
        </mxCell>
        <mxCell id="DzdwVPKW61eDhLBlSxj8-26" style="edgeStyle=orthogonalEdgeStyle;rounded=0;orthogonalLoop=1;jettySize=auto;html=1;exitX=0.5;exitY=1;exitDx=0;exitDy=0;entryX=0;entryY=0.5;entryDx=0;entryDy=0;endArrow=ERzeroToMany;endFill=0;" parent="1" source="DzdwVPKW61eDhLBlSxj8-24" target="DzdwVPKW61eDhLBlSxj8-25" edge="1">
          <mxGeometry relative="1" as="geometry" />
        </mxCell>
        <mxCell id="DzdwVPKW61eDhLBlSxj8-27" style="edgeStyle=orthogonalEdgeStyle;rounded=0;orthogonalLoop=1;jettySize=auto;html=1;exitX=0;exitY=0.5;exitDx=0;exitDy=0;entryX=0.75;entryY=1;entryDx=0;entryDy=0;endArrow=ERzeroToOne;endFill=0;" parent="1" source="DzdwVPKW61eDhLBlSxj8-24" target="DzdwVPKW61eDhLBlSxj8-2" edge="1">
          <mxGeometry relative="1" as="geometry" />
        </mxCell>
        <mxCell id="DzdwVPKW61eDhLBlSxj8-24" value="has" style="shape=rhombus;perimeter=rhombusPerimeter;whiteSpace=wrap;html=1;align=center;" parent="1" vertex="1">
          <mxGeometry x="540" y="600" width="120" height="60" as="geometry" />
        </mxCell>
        <mxCell id="DzdwVPKW61eDhLBlSxj8-106" style="edgeStyle=orthogonalEdgeStyle;rounded=0;orthogonalLoop=1;jettySize=auto;html=1;exitX=0.5;exitY=0;exitDx=0;exitDy=0;entryX=0.5;entryY=1;entryDx=0;entryDy=0;endArrow=none;endFill=0;" parent="1" source="DzdwVPKW61eDhLBlSxj8-25" target="DzdwVPKW61eDhLBlSxj8-105" edge="1">
          <mxGeometry relative="1" as="geometry" />
        </mxCell>
        <mxCell id="DzdwVPKW61eDhLBlSxj8-107" style="edgeStyle=orthogonalEdgeStyle;rounded=0;orthogonalLoop=1;jettySize=auto;html=1;exitX=0.5;exitY=0;exitDx=0;exitDy=0;entryX=0.5;entryY=1;entryDx=0;entryDy=0;endArrow=none;endFill=0;" parent="1" source="DzdwVPKW61eDhLBlSxj8-25" target="DzdwVPKW61eDhLBlSxj8-104" edge="1">
          <mxGeometry relative="1" as="geometry" />
        </mxCell>
        <mxCell id="DzdwVPKW61eDhLBlSxj8-115" style="edgeStyle=orthogonalEdgeStyle;rounded=0;orthogonalLoop=1;jettySize=auto;html=1;exitX=0.5;exitY=0;exitDx=0;exitDy=0;entryX=0.5;entryY=1;entryDx=0;entryDy=0;endArrow=none;endFill=0;" parent="1" source="DzdwVPKW61eDhLBlSxj8-25" target="DzdwVPKW61eDhLBlSxj8-114" edge="1">
          <mxGeometry relative="1" as="geometry" />
        </mxCell>
        <mxCell id="DzdwVPKW61eDhLBlSxj8-25" value="Hangar" style="whiteSpace=wrap;html=1;align=center;" parent="1" vertex="1">
          <mxGeometry x="720" y="745" width="100" height="40" as="geometry" />
        </mxCell>
        <mxCell id="DzdwVPKW61eDhLBlSxj8-31" style="edgeStyle=orthogonalEdgeStyle;rounded=0;orthogonalLoop=1;jettySize=auto;html=1;exitX=0.5;exitY=0;exitDx=0;exitDy=0;entryX=0.5;entryY=1;entryDx=0;entryDy=0;endArrow=ERmandOne;endFill=0;" parent="1" source="DzdwVPKW61eDhLBlSxj8-28" target="DzdwVPKW61eDhLBlSxj8-2" edge="1">
          <mxGeometry relative="1" as="geometry" />
        </mxCell>
        <mxCell id="DzdwVPKW61eDhLBlSxj8-32" style="edgeStyle=orthogonalEdgeStyle;rounded=0;orthogonalLoop=1;jettySize=auto;html=1;exitX=0.5;exitY=1;exitDx=0;exitDy=0;entryX=0.5;entryY=0;entryDx=0;entryDy=0;endArrow=ERzeroToMany;endFill=0;" parent="1" source="DzdwVPKW61eDhLBlSxj8-28" target="DzdwVPKW61eDhLBlSxj8-30" edge="1">
          <mxGeometry relative="1" as="geometry" />
        </mxCell>
        <mxCell id="DzdwVPKW61eDhLBlSxj8-28" value="has" style="shape=rhombus;perimeter=rhombusPerimeter;whiteSpace=wrap;html=1;align=center;" parent="1" vertex="1">
          <mxGeometry x="365" y="840" width="120" height="60" as="geometry" />
        </mxCell>
        <mxCell id="DzdwVPKW61eDhLBlSxj8-34" style="edgeStyle=orthogonalEdgeStyle;rounded=0;orthogonalLoop=1;jettySize=auto;html=1;exitX=1;exitY=0.5;exitDx=0;exitDy=0;entryX=0.5;entryY=1;entryDx=0;entryDy=0;endArrow=none;endFill=0;" parent="1" source="DzdwVPKW61eDhLBlSxj8-30" target="DzdwVPKW61eDhLBlSxj8-35" edge="1">
          <mxGeometry relative="1" as="geometry" />
        </mxCell>
        <mxCell id="DzdwVPKW61eDhLBlSxj8-36" style="edgeStyle=orthogonalEdgeStyle;rounded=0;orthogonalLoop=1;jettySize=auto;html=1;exitX=1;exitY=0.5;exitDx=0;exitDy=0;entryX=0.5;entryY=1;entryDx=0;entryDy=0;endArrow=none;endFill=0;" parent="1" source="DzdwVPKW61eDhLBlSxj8-30" target="DzdwVPKW61eDhLBlSxj8-33" edge="1">
          <mxGeometry relative="1" as="geometry" />
        </mxCell>
        <mxCell id="DzdwVPKW61eDhLBlSxj8-128" style="edgeStyle=orthogonalEdgeStyle;rounded=0;orthogonalLoop=1;jettySize=auto;html=1;exitX=1;exitY=0.5;exitDx=0;exitDy=0;entryX=0.5;entryY=0;entryDx=0;entryDy=0;endArrow=none;endFill=0;" parent="1" source="DzdwVPKW61eDhLBlSxj8-30" target="DzdwVPKW61eDhLBlSxj8-127" edge="1">
          <mxGeometry relative="1" as="geometry" />
        </mxCell>
        <mxCell id="DzdwVPKW61eDhLBlSxj8-30" value="Runway" style="shape=ext;margin=3;double=1;whiteSpace=wrap;html=1;align=center;" parent="1" vertex="1">
          <mxGeometry x="375" y="950" width="100" height="40" as="geometry" />
        </mxCell>
        <mxCell id="DzdwVPKW61eDhLBlSxj8-33" value="&lt;span style=&quot;border-bottom: 1px dotted&quot;&gt;airport&lt;/span&gt;" style="ellipse;whiteSpace=wrap;html=1;align=center;" parent="1" vertex="1">
          <mxGeometry x="580" y="880" width="100" height="40" as="geometry" />
        </mxCell>
        <mxCell id="DzdwVPKW61eDhLBlSxj8-35" value="runway_id" style="ellipse;whiteSpace=wrap;html=1;align=center;fontStyle=4;" parent="1" vertex="1">
          <mxGeometry x="475" y="880" width="100" height="40" as="geometry" />
        </mxCell>
        <mxCell id="DzdwVPKW61eDhLBlSxj8-39" style="edgeStyle=orthogonalEdgeStyle;rounded=0;orthogonalLoop=1;jettySize=auto;html=1;exitX=0.5;exitY=1;exitDx=0;exitDy=0;entryX=0.5;entryY=0;entryDx=0;entryDy=0;endArrow=ERzeroToMany;endFill=0;" parent="1" source="DzdwVPKW61eDhLBlSxj8-37" target="DzdwVPKW61eDhLBlSxj8-38" edge="1">
          <mxGeometry relative="1" as="geometry" />
        </mxCell>
        <mxCell id="DzdwVPKW61eDhLBlSxj8-40" style="edgeStyle=orthogonalEdgeStyle;rounded=0;orthogonalLoop=1;jettySize=auto;html=1;exitX=1;exitY=0.5;exitDx=0;exitDy=0;endArrow=ERzeroToOne;endFill=0;entryX=0;entryY=0.25;entryDx=0;entryDy=0;" parent="1" source="DzdwVPKW61eDhLBlSxj8-37" target="DzdwVPKW61eDhLBlSxj8-2" edge="1">
          <mxGeometry relative="1" as="geometry">
            <mxPoint x="375" y="550" as="targetPoint" />
          </mxGeometry>
        </mxCell>
        <mxCell id="DzdwVPKW61eDhLBlSxj8-37" value="has" style="shape=rhombus;perimeter=rhombusPerimeter;whiteSpace=wrap;html=1;align=center;" parent="1" vertex="1">
          <mxGeometry x="30" y="510" width="120" height="60" as="geometry" />
        </mxCell>
        <mxCell id="DzdwVPKW61eDhLBlSxj8-38" value="Luggage Claim Belt" style="whiteSpace=wrap;html=1;align=center;" parent="1" vertex="1">
          <mxGeometry x="40" y="1435" width="100" height="40" as="geometry" />
        </mxCell>
        <mxCell id="DzdwVPKW61eDhLBlSxj8-41" style="edgeStyle=orthogonalEdgeStyle;rounded=0;orthogonalLoop=1;jettySize=auto;html=1;exitX=0.5;exitY=1;exitDx=0;exitDy=0;entryX=0.5;entryY=0;entryDx=0;entryDy=0;endArrow=ERzeroToMany;endFill=0;" parent="1" source="DzdwVPKW61eDhLBlSxj8-42" target="DzdwVPKW61eDhLBlSxj8-43" edge="1">
          <mxGeometry relative="1" as="geometry" />
        </mxCell>
        <mxCell id="DzdwVPKW61eDhLBlSxj8-45" style="edgeStyle=orthogonalEdgeStyle;rounded=0;orthogonalLoop=1;jettySize=auto;html=1;exitX=0.5;exitY=0;exitDx=0;exitDy=0;entryX=0;entryY=0.75;entryDx=0;entryDy=0;endArrow=ERzeroToOne;endFill=0;" parent="1" source="DzdwVPKW61eDhLBlSxj8-42" target="DzdwVPKW61eDhLBlSxj8-2" edge="1">
          <mxGeometry relative="1" as="geometry" />
        </mxCell>
        <mxCell id="DzdwVPKW61eDhLBlSxj8-42" value="has" style="shape=rhombus;perimeter=rhombusPerimeter;whiteSpace=wrap;html=1;align=center;" parent="1" vertex="1">
          <mxGeometry x="110" y="590" width="120" height="60" as="geometry" />
        </mxCell>
        <mxCell id="JigiFPAdXV7mOYjsng4S-56" style="edgeStyle=orthogonalEdgeStyle;rounded=0;orthogonalLoop=1;jettySize=auto;html=1;exitX=1;exitY=0;exitDx=0;exitDy=0;entryX=0.5;entryY=1;entryDx=0;entryDy=0;endArrow=none;endFill=0;" edge="1" parent="1" source="DzdwVPKW61eDhLBlSxj8-43" target="JigiFPAdXV7mOYjsng4S-55">
          <mxGeometry relative="1" as="geometry" />
        </mxCell>
        <mxCell id="DzdwVPKW61eDhLBlSxj8-43" value="Check-in Machine" style="whiteSpace=wrap;html=1;align=center;" parent="1" vertex="1">
          <mxGeometry x="120" y="1340" width="100" height="40" as="geometry" />
        </mxCell>
        <mxCell id="DzdwVPKW61eDhLBlSxj8-48" style="edgeStyle=orthogonalEdgeStyle;rounded=0;orthogonalLoop=1;jettySize=auto;html=1;exitX=0.5;exitY=0;exitDx=0;exitDy=0;entryX=0.5;entryY=1;entryDx=0;entryDy=0;endArrow=none;endFill=0;" parent="1" source="DzdwVPKW61eDhLBlSxj8-47" target="DzdwVPKW61eDhLBlSxj8-6" edge="1">
          <mxGeometry relative="1" as="geometry" />
        </mxCell>
        <mxCell id="DzdwVPKW61eDhLBlSxj8-47" value="city_id" style="ellipse;whiteSpace=wrap;html=1;align=center;fontStyle=4;" parent="1" vertex="1">
          <mxGeometry x="220" y="815" width="100" height="40" as="geometry" />
        </mxCell>
        <mxCell id="DzdwVPKW61eDhLBlSxj8-49" value="&lt;span style=&quot;border-bottom: 1px dotted&quot;&gt;city&lt;/span&gt;" style="ellipse;whiteSpace=wrap;html=1;align=center;" parent="1" vertex="1">
          <mxGeometry x="440" y="445" width="100" height="40" as="geometry" />
        </mxCell>
        <mxCell id="DzdwVPKW61eDhLBlSxj8-54" style="edgeStyle=orthogonalEdgeStyle;rounded=0;orthogonalLoop=1;jettySize=auto;html=1;exitX=0;exitY=0.5;exitDx=0;exitDy=0;entryX=1;entryY=0.5;entryDx=0;entryDy=0;endArrow=ERzeroToOne;endFill=0;" parent="1" source="DzdwVPKW61eDhLBlSxj8-51" target="DzdwVPKW61eDhLBlSxj8-11" edge="1">
          <mxGeometry relative="1" as="geometry" />
        </mxCell>
        <mxCell id="DzdwVPKW61eDhLBlSxj8-55" style="edgeStyle=orthogonalEdgeStyle;rounded=0;orthogonalLoop=1;jettySize=auto;html=1;exitX=1;exitY=0.5;exitDx=0;exitDy=0;entryX=0;entryY=0.5;entryDx=0;entryDy=0;endArrow=ERoneToMany;endFill=0;" parent="1" source="DzdwVPKW61eDhLBlSxj8-51" target="DzdwVPKW61eDhLBlSxj8-53" edge="1">
          <mxGeometry relative="1" as="geometry" />
        </mxCell>
        <mxCell id="DzdwVPKW61eDhLBlSxj8-51" value="has" style="shape=rhombus;perimeter=rhombusPerimeter;whiteSpace=wrap;html=1;align=center;" parent="1" vertex="1">
          <mxGeometry x="1000" y="435" width="120" height="60" as="geometry" />
        </mxCell>
        <mxCell id="DzdwVPKW61eDhLBlSxj8-57" style="edgeStyle=orthogonalEdgeStyle;rounded=0;orthogonalLoop=1;jettySize=auto;html=1;exitX=0.5;exitY=1;exitDx=0;exitDy=0;entryX=1;entryY=1;entryDx=0;entryDy=0;endArrow=none;endFill=0;" parent="1" source="DzdwVPKW61eDhLBlSxj8-53" target="DzdwVPKW61eDhLBlSxj8-56" edge="1">
          <mxGeometry relative="1" as="geometry" />
        </mxCell>
        <mxCell id="DzdwVPKW61eDhLBlSxj8-60" style="edgeStyle=orthogonalEdgeStyle;rounded=0;orthogonalLoop=1;jettySize=auto;html=1;exitX=0.5;exitY=1;exitDx=0;exitDy=0;entryX=0;entryY=1;entryDx=0;entryDy=0;endArrow=none;endFill=0;" parent="1" source="DzdwVPKW61eDhLBlSxj8-53" target="DzdwVPKW61eDhLBlSxj8-58" edge="1">
          <mxGeometry relative="1" as="geometry" />
        </mxCell>
        <mxCell id="DzdwVPKW61eDhLBlSxj8-53" value="Gate" style="whiteSpace=wrap;html=1;align=center;" parent="1" vertex="1">
          <mxGeometry x="1220" y="445" width="100" height="40" as="geometry" />
        </mxCell>
        <mxCell id="DzdwVPKW61eDhLBlSxj8-56" value="gate_id" style="ellipse;whiteSpace=wrap;html=1;align=center;fontStyle=4;" parent="1" vertex="1">
          <mxGeometry x="1160" y="510" width="100" height="40" as="geometry" />
        </mxCell>
        <mxCell id="DzdwVPKW61eDhLBlSxj8-58" value="&lt;span style=&quot;border-bottom: 1px dotted&quot;&gt;terminal&lt;/span&gt;" style="ellipse;whiteSpace=wrap;html=1;align=center;" parent="1" vertex="1">
          <mxGeometry x="1280" y="510" width="100" height="40" as="geometry" />
        </mxCell>
        <mxCell id="DzdwVPKW61eDhLBlSxj8-71" style="edgeStyle=orthogonalEdgeStyle;rounded=0;orthogonalLoop=1;jettySize=auto;html=1;exitX=0.5;exitY=1;exitDx=0;exitDy=0;entryX=0.5;entryY=0;entryDx=0;entryDy=0;endArrow=none;endFill=0;" parent="1" source="DzdwVPKW61eDhLBlSxj8-61" target="DzdwVPKW61eDhLBlSxj8-69" edge="1">
          <mxGeometry relative="1" as="geometry" />
        </mxCell>
        <mxCell id="DzdwVPKW61eDhLBlSxj8-72" style="edgeStyle=orthogonalEdgeStyle;rounded=0;orthogonalLoop=1;jettySize=auto;html=1;exitX=0.5;exitY=1;exitDx=0;exitDy=0;entryX=0.5;entryY=0;entryDx=0;entryDy=0;endArrow=none;endFill=0;" parent="1" source="DzdwVPKW61eDhLBlSxj8-61" target="DzdwVPKW61eDhLBlSxj8-68" edge="1">
          <mxGeometry relative="1" as="geometry" />
        </mxCell>
        <mxCell id="DzdwVPKW61eDhLBlSxj8-73" style="edgeStyle=orthogonalEdgeStyle;rounded=0;orthogonalLoop=1;jettySize=auto;html=1;exitX=0.5;exitY=1;exitDx=0;exitDy=0;entryX=0.5;entryY=0;entryDx=0;entryDy=0;endArrow=none;endFill=0;" parent="1" source="DzdwVPKW61eDhLBlSxj8-61" target="DzdwVPKW61eDhLBlSxj8-70" edge="1">
          <mxGeometry relative="1" as="geometry" />
        </mxCell>
        <mxCell id="DzdwVPKW61eDhLBlSxj8-61" value="Ticket Machine" style="whiteSpace=wrap;html=1;align=center;" parent="1" vertex="1">
          <mxGeometry x="1010" y="270" width="100" height="40" as="geometry" />
        </mxCell>
        <mxCell id="DzdwVPKW61eDhLBlSxj8-64" style="edgeStyle=orthogonalEdgeStyle;rounded=0;orthogonalLoop=1;jettySize=auto;html=1;exitX=1;exitY=0.5;exitDx=0;exitDy=0;entryX=0;entryY=0.5;entryDx=0;entryDy=0;endArrow=ERoneToMany;endFill=0;" parent="1" source="DzdwVPKW61eDhLBlSxj8-62" target="DzdwVPKW61eDhLBlSxj8-61" edge="1">
          <mxGeometry relative="1" as="geometry" />
        </mxCell>
        <mxCell id="DzdwVPKW61eDhLBlSxj8-65" style="edgeStyle=orthogonalEdgeStyle;rounded=0;orthogonalLoop=1;jettySize=auto;html=1;exitX=0.5;exitY=1;exitDx=0;exitDy=0;entryX=0.5;entryY=0;entryDx=0;entryDy=0;endArrow=ERzeroToOne;endFill=0;" parent="1" source="DzdwVPKW61eDhLBlSxj8-62" target="DzdwVPKW61eDhLBlSxj8-11" edge="1">
          <mxGeometry relative="1" as="geometry" />
        </mxCell>
        <mxCell id="DzdwVPKW61eDhLBlSxj8-62" value="has" style="shape=rhombus;perimeter=rhombusPerimeter;whiteSpace=wrap;html=1;align=center;" parent="1" vertex="1">
          <mxGeometry x="790" y="260" width="120" height="60" as="geometry" />
        </mxCell>
        <mxCell id="DzdwVPKW61eDhLBlSxj8-66" style="edgeStyle=orthogonalEdgeStyle;rounded=0;orthogonalLoop=1;jettySize=auto;html=1;exitX=0.5;exitY=1;exitDx=0;exitDy=0;entryX=0.5;entryY=0;entryDx=0;entryDy=0;endArrow=ERzeroToOne;endFill=0;" parent="1" source="DzdwVPKW61eDhLBlSxj8-63" target="DzdwVPKW61eDhLBlSxj8-53" edge="1">
          <mxGeometry relative="1" as="geometry" />
        </mxCell>
        <mxCell id="DzdwVPKW61eDhLBlSxj8-67" style="edgeStyle=orthogonalEdgeStyle;rounded=0;orthogonalLoop=1;jettySize=auto;html=1;exitX=0;exitY=0.5;exitDx=0;exitDy=0;entryX=1;entryY=0.5;entryDx=0;entryDy=0;endArrow=ERzeroToMany;endFill=0;" parent="1" source="DzdwVPKW61eDhLBlSxj8-63" target="DzdwVPKW61eDhLBlSxj8-61" edge="1">
          <mxGeometry relative="1" as="geometry" />
        </mxCell>
        <mxCell id="DzdwVPKW61eDhLBlSxj8-63" value="has" style="shape=rhombus;perimeter=rhombusPerimeter;whiteSpace=wrap;html=1;align=center;" parent="1" vertex="1">
          <mxGeometry x="1210" y="260" width="120" height="60" as="geometry" />
        </mxCell>
        <mxCell id="DzdwVPKW61eDhLBlSxj8-68" value="ticketmachine_id" style="ellipse;whiteSpace=wrap;html=1;align=center;fontStyle=4;" parent="1" vertex="1">
          <mxGeometry x="1010" y="350" width="100" height="40" as="geometry" />
        </mxCell>
        <mxCell id="DzdwVPKW61eDhLBlSxj8-69" value="&lt;span style=&quot;border-bottom: 1px dotted&quot;&gt;terminal&lt;/span&gt;" style="ellipse;whiteSpace=wrap;html=1;align=center;" parent="1" vertex="1">
          <mxGeometry x="900" y="350" width="100" height="40" as="geometry" />
        </mxCell>
        <mxCell id="DzdwVPKW61eDhLBlSxj8-70" value="&lt;span style=&quot;border-bottom: 1px dotted&quot;&gt;gate&lt;/span&gt;" style="ellipse;whiteSpace=wrap;html=1;align=center;" parent="1" vertex="1">
          <mxGeometry x="1120" y="350" width="100" height="40" as="geometry" />
        </mxCell>
        <mxCell id="DzdwVPKW61eDhLBlSxj8-76" style="edgeStyle=orthogonalEdgeStyle;rounded=0;orthogonalLoop=1;jettySize=auto;html=1;exitX=0.5;exitY=0;exitDx=0;exitDy=0;entryX=1;entryY=0.5;entryDx=0;entryDy=0;endArrow=ERzeroToOne;endFill=0;" parent="1" source="DzdwVPKW61eDhLBlSxj8-74" target="DzdwVPKW61eDhLBlSxj8-53" edge="1">
          <mxGeometry relative="1" as="geometry" />
        </mxCell>
        <mxCell id="DzdwVPKW61eDhLBlSxj8-77" style="edgeStyle=orthogonalEdgeStyle;rounded=0;orthogonalLoop=1;jettySize=auto;html=1;exitX=0.5;exitY=1;exitDx=0;exitDy=0;entryX=0.5;entryY=0;entryDx=0;entryDy=0;endArrow=ERzeroToOne;endFill=0;" parent="1" source="DzdwVPKW61eDhLBlSxj8-74" target="DzdwVPKW61eDhLBlSxj8-75" edge="1">
          <mxGeometry relative="1" as="geometry" />
        </mxCell>
        <mxCell id="DzdwVPKW61eDhLBlSxj8-74" value="dock" style="shape=rhombus;perimeter=rhombusPerimeter;whiteSpace=wrap;html=1;align=center;" parent="1" vertex="1">
          <mxGeometry x="1380" y="530" width="120" height="60" as="geometry" />
        </mxCell>
        <mxCell id="DzdwVPKW61eDhLBlSxj8-85" style="edgeStyle=orthogonalEdgeStyle;rounded=0;orthogonalLoop=1;jettySize=auto;html=1;exitX=1;exitY=0.5;exitDx=0;exitDy=0;entryX=0;entryY=0.5;entryDx=0;entryDy=0;endArrow=none;endFill=0;" parent="1" source="DzdwVPKW61eDhLBlSxj8-75" target="DzdwVPKW61eDhLBlSxj8-83" edge="1">
          <mxGeometry relative="1" as="geometry" />
        </mxCell>
        <mxCell id="DzdwVPKW61eDhLBlSxj8-86" style="edgeStyle=orthogonalEdgeStyle;rounded=0;orthogonalLoop=1;jettySize=auto;html=1;exitX=1;exitY=0.5;exitDx=0;exitDy=0;entryX=0;entryY=0.5;entryDx=0;entryDy=0;endArrow=none;endFill=0;" parent="1" source="DzdwVPKW61eDhLBlSxj8-75" target="DzdwVPKW61eDhLBlSxj8-82" edge="1">
          <mxGeometry relative="1" as="geometry" />
        </mxCell>
        <mxCell id="DzdwVPKW61eDhLBlSxj8-87" style="edgeStyle=orthogonalEdgeStyle;rounded=0;orthogonalLoop=1;jettySize=auto;html=1;exitX=1;exitY=0.5;exitDx=0;exitDy=0;entryX=0;entryY=0.5;entryDx=0;entryDy=0;endArrow=none;endFill=0;" parent="1" source="DzdwVPKW61eDhLBlSxj8-75" target="DzdwVPKW61eDhLBlSxj8-84" edge="1">
          <mxGeometry relative="1" as="geometry" />
        </mxCell>
        <mxCell id="DzdwVPKW61eDhLBlSxj8-113" style="edgeStyle=orthogonalEdgeStyle;rounded=0;orthogonalLoop=1;jettySize=auto;html=1;exitX=1;exitY=0.5;exitDx=0;exitDy=0;entryX=0;entryY=0.5;entryDx=0;entryDy=0;endArrow=none;endFill=0;" parent="1" source="DzdwVPKW61eDhLBlSxj8-75" target="DzdwVPKW61eDhLBlSxj8-112" edge="1">
          <mxGeometry relative="1" as="geometry" />
        </mxCell>
        <mxCell id="DzdwVPKW61eDhLBlSxj8-75" value="Plane" style="whiteSpace=wrap;html=1;align=center;" parent="1" vertex="1">
          <mxGeometry x="1390" y="695" width="100" height="40" as="geometry" />
        </mxCell>
        <mxCell id="DzdwVPKW61eDhLBlSxj8-80" style="edgeStyle=orthogonalEdgeStyle;rounded=0;orthogonalLoop=1;jettySize=auto;html=1;exitX=0;exitY=0.5;exitDx=0;exitDy=0;entryX=1;entryY=0.5;entryDx=0;entryDy=0;endArrow=ERzeroToOne;endFill=0;" parent="1" source="DzdwVPKW61eDhLBlSxj8-79" target="DzdwVPKW61eDhLBlSxj8-25" edge="1">
          <mxGeometry relative="1" as="geometry" />
        </mxCell>
        <mxCell id="DzdwVPKW61eDhLBlSxj8-81" style="edgeStyle=orthogonalEdgeStyle;rounded=0;orthogonalLoop=1;jettySize=auto;html=1;exitX=1;exitY=0.5;exitDx=0;exitDy=0;entryX=0;entryY=0.5;entryDx=0;entryDy=0;endArrow=ERzeroToMany;endFill=0;" parent="1" source="DzdwVPKW61eDhLBlSxj8-79" target="DzdwVPKW61eDhLBlSxj8-75" edge="1">
          <mxGeometry relative="1" as="geometry" />
        </mxCell>
        <mxCell id="DzdwVPKW61eDhLBlSxj8-79" value="dock" style="shape=rhombus;perimeter=rhombusPerimeter;whiteSpace=wrap;html=1;align=center;" parent="1" vertex="1">
          <mxGeometry x="1070" y="735" width="120" height="60" as="geometry" />
        </mxCell>
        <mxCell id="DzdwVPKW61eDhLBlSxj8-82" value="plane_id" style="ellipse;whiteSpace=wrap;html=1;align=center;fontStyle=4;" parent="1" vertex="1">
          <mxGeometry x="1530" y="645" width="100" height="40" as="geometry" />
        </mxCell>
        <mxCell id="DzdwVPKW61eDhLBlSxj8-83" value="&lt;span style=&quot;border-bottom: 1px dotted&quot;&gt;hangar&lt;/span&gt;" style="ellipse;whiteSpace=wrap;html=1;align=center;" parent="1" vertex="1">
          <mxGeometry x="1530" y="695" width="100" height="40" as="geometry" />
        </mxCell>
        <mxCell id="DzdwVPKW61eDhLBlSxj8-84" value="&lt;span style=&quot;border-bottom: 1px dotted&quot;&gt;gate&lt;/span&gt;" style="ellipse;whiteSpace=wrap;html=1;align=center;" parent="1" vertex="1">
          <mxGeometry x="1530" y="745" width="100" height="40" as="geometry" />
        </mxCell>
        <mxCell id="DzdwVPKW61eDhLBlSxj8-111" style="edgeStyle=orthogonalEdgeStyle;rounded=0;orthogonalLoop=1;jettySize=auto;html=1;exitX=0.5;exitY=0;exitDx=0;exitDy=0;entryX=0.5;entryY=1;entryDx=0;entryDy=0;endArrow=none;endFill=0;" parent="1" source="DzdwVPKW61eDhLBlSxj8-88" target="DzdwVPKW61eDhLBlSxj8-108" edge="1">
          <mxGeometry relative="1" as="geometry" />
        </mxCell>
        <mxCell id="DzdwVPKW61eDhLBlSxj8-88" value="Airline" style="whiteSpace=wrap;html=1;align=center;" parent="1" vertex="1">
          <mxGeometry x="1080" y="880" width="100" height="40" as="geometry" />
        </mxCell>
        <mxCell id="DzdwVPKW61eDhLBlSxj8-90" style="edgeStyle=orthogonalEdgeStyle;rounded=0;orthogonalLoop=1;jettySize=auto;html=1;exitX=0;exitY=0.5;exitDx=0;exitDy=0;entryX=1;entryY=0.5;entryDx=0;entryDy=0;endArrow=ERzeroToOne;endFill=0;" parent="1" source="DzdwVPKW61eDhLBlSxj8-89" target="DzdwVPKW61eDhLBlSxj8-88" edge="1">
          <mxGeometry relative="1" as="geometry" />
        </mxCell>
        <mxCell id="DzdwVPKW61eDhLBlSxj8-116" style="edgeStyle=orthogonalEdgeStyle;rounded=0;orthogonalLoop=1;jettySize=auto;html=1;exitX=1;exitY=0.5;exitDx=0;exitDy=0;entryX=0.25;entryY=1;entryDx=0;entryDy=0;endArrow=ERzeroToMany;endFill=0;" parent="1" source="DzdwVPKW61eDhLBlSxj8-89" target="DzdwVPKW61eDhLBlSxj8-75" edge="1">
          <mxGeometry relative="1" as="geometry" />
        </mxCell>
        <mxCell id="DzdwVPKW61eDhLBlSxj8-89" value="own" style="shape=rhombus;perimeter=rhombusPerimeter;whiteSpace=wrap;html=1;align=center;" parent="1" vertex="1">
          <mxGeometry x="1240" y="870" width="120" height="60" as="geometry" />
        </mxCell>
        <mxCell id="DzdwVPKW61eDhLBlSxj8-93" style="edgeStyle=orthogonalEdgeStyle;rounded=0;orthogonalLoop=1;jettySize=auto;html=1;exitX=0.5;exitY=0;exitDx=0;exitDy=0;entryX=0.5;entryY=1;entryDx=0;entryDy=0;endArrow=ERzeroToMany;endFill=0;" parent="1" source="DzdwVPKW61eDhLBlSxj8-92" target="DzdwVPKW61eDhLBlSxj8-25" edge="1">
          <mxGeometry relative="1" as="geometry" />
        </mxCell>
        <mxCell id="DzdwVPKW61eDhLBlSxj8-94" style="edgeStyle=orthogonalEdgeStyle;rounded=0;orthogonalLoop=1;jettySize=auto;html=1;exitX=1;exitY=0.5;exitDx=0;exitDy=0;entryX=0;entryY=0.5;entryDx=0;entryDy=0;endArrow=ERzeroToOne;endFill=0;" parent="1" source="DzdwVPKW61eDhLBlSxj8-92" target="DzdwVPKW61eDhLBlSxj8-88" edge="1">
          <mxGeometry relative="1" as="geometry" />
        </mxCell>
        <mxCell id="DzdwVPKW61eDhLBlSxj8-92" value="own" style="shape=rhombus;perimeter=rhombusPerimeter;whiteSpace=wrap;html=1;align=center;" parent="1" vertex="1">
          <mxGeometry x="710" y="870" width="120" height="60" as="geometry" />
        </mxCell>
        <mxCell id="DzdwVPKW61eDhLBlSxj8-98" style="edgeStyle=orthogonalEdgeStyle;rounded=0;orthogonalLoop=1;jettySize=auto;html=1;exitX=0;exitY=0.5;exitDx=0;exitDy=0;entryX=0.75;entryY=1;entryDx=0;entryDy=0;endArrow=ERmandOne;endFill=0;" parent="1" source="DzdwVPKW61eDhLBlSxj8-95" target="DzdwVPKW61eDhLBlSxj8-75" edge="1">
          <mxGeometry relative="1" as="geometry" />
        </mxCell>
        <mxCell id="DzdwVPKW61eDhLBlSxj8-99" style="edgeStyle=orthogonalEdgeStyle;rounded=0;orthogonalLoop=1;jettySize=auto;html=1;exitX=0.5;exitY=1;exitDx=0;exitDy=0;entryX=0.5;entryY=0;entryDx=0;entryDy=0;endArrow=ERzeroToMany;endFill=0;" parent="1" source="DzdwVPKW61eDhLBlSxj8-95" target="JigiFPAdXV7mOYjsng4S-1" edge="1">
          <mxGeometry relative="1" as="geometry">
            <mxPoint x="1470" y="1125" as="targetPoint" />
          </mxGeometry>
        </mxCell>
        <mxCell id="DzdwVPKW61eDhLBlSxj8-95" value="board" style="shape=rhombus;perimeter=rhombusPerimeter;whiteSpace=wrap;html=1;align=center;" parent="1" vertex="1">
          <mxGeometry x="1490" y="870" width="120" height="60" as="geometry" />
        </mxCell>
        <mxCell id="DzdwVPKW61eDhLBlSxj8-102" style="edgeStyle=orthogonalEdgeStyle;rounded=0;orthogonalLoop=1;jettySize=auto;html=1;exitX=1;exitY=0.5;exitDx=0;exitDy=0;entryX=0;entryY=0.5;entryDx=0;entryDy=0;endArrow=none;endFill=0;" parent="1" source="JigiFPAdXV7mOYjsng4S-1" target="DzdwVPKW61eDhLBlSxj8-100" edge="1">
          <mxGeometry relative="1" as="geometry">
            <mxPoint x="1520" y="1145" as="sourcePoint" />
          </mxGeometry>
        </mxCell>
        <mxCell id="DzdwVPKW61eDhLBlSxj8-103" style="edgeStyle=orthogonalEdgeStyle;rounded=0;orthogonalLoop=1;jettySize=auto;html=1;exitX=1;exitY=0.5;exitDx=0;exitDy=0;entryX=0;entryY=0.5;entryDx=0;entryDy=0;endArrow=none;endFill=0;" parent="1" source="JigiFPAdXV7mOYjsng4S-1" target="DzdwVPKW61eDhLBlSxj8-101" edge="1">
          <mxGeometry relative="1" as="geometry">
            <mxPoint x="1520" y="1145" as="sourcePoint" />
          </mxGeometry>
        </mxCell>
        <mxCell id="DzdwVPKW61eDhLBlSxj8-170" style="edgeStyle=orthogonalEdgeStyle;rounded=0;orthogonalLoop=1;jettySize=auto;html=1;exitX=1;exitY=0.5;exitDx=0;exitDy=0;entryX=0;entryY=0.5;entryDx=0;entryDy=0;endArrow=none;endFill=0;" parent="1" source="JigiFPAdXV7mOYjsng4S-1" target="DzdwVPKW61eDhLBlSxj8-169" edge="1">
          <mxGeometry relative="1" as="geometry">
            <mxPoint x="1520" y="1145" as="sourcePoint" />
          </mxGeometry>
        </mxCell>
        <mxCell id="DzdwVPKW61eDhLBlSxj8-100" value="passenger_id" style="ellipse;whiteSpace=wrap;html=1;align=center;fontStyle=4;" parent="1" vertex="1">
          <mxGeometry x="1560" y="1100" width="100" height="40" as="geometry" />
        </mxCell>
        <mxCell id="DzdwVPKW61eDhLBlSxj8-101" value="&lt;span style=&quot;border-bottom: 1px dotted&quot;&gt;plane&lt;/span&gt;" style="ellipse;whiteSpace=wrap;html=1;align=center;" parent="1" vertex="1">
          <mxGeometry x="1560" y="1150" width="100" height="40" as="geometry" />
        </mxCell>
        <mxCell id="DzdwVPKW61eDhLBlSxj8-104" value="hangar_id" style="ellipse;whiteSpace=wrap;html=1;align=center;fontStyle=4;" parent="1" vertex="1">
          <mxGeometry x="660" y="655" width="100" height="40" as="geometry" />
        </mxCell>
        <mxCell id="DzdwVPKW61eDhLBlSxj8-105" value="&lt;span style=&quot;border-bottom: 1px dotted&quot;&gt;airline&lt;/span&gt;" style="ellipse;whiteSpace=wrap;html=1;align=center;" parent="1" vertex="1">
          <mxGeometry x="780" y="655" width="100" height="40" as="geometry" />
        </mxCell>
        <mxCell id="DzdwVPKW61eDhLBlSxj8-108" value="airline_id" style="ellipse;whiteSpace=wrap;html=1;align=center;fontStyle=4;" parent="1" vertex="1">
          <mxGeometry x="1080" y="820" width="100" height="40" as="geometry" />
        </mxCell>
        <mxCell id="DzdwVPKW61eDhLBlSxj8-112" value="&lt;span style=&quot;border-bottom: 1px dotted&quot;&gt;airline&lt;/span&gt;" style="ellipse;whiteSpace=wrap;html=1;align=center;" parent="1" vertex="1">
          <mxGeometry x="1530" y="800" width="100" height="40" as="geometry" />
        </mxCell>
        <mxCell id="DzdwVPKW61eDhLBlSxj8-114" value="&lt;span style=&quot;border-bottom: 1px dotted&quot;&gt;airport&lt;/span&gt;" style="ellipse;whiteSpace=wrap;html=1;align=center;" parent="1" vertex="1">
          <mxGeometry x="900" y="655" width="100" height="40" as="geometry" />
        </mxCell>
        <mxCell id="DzdwVPKW61eDhLBlSxj8-130" style="edgeStyle=orthogonalEdgeStyle;rounded=0;orthogonalLoop=1;jettySize=auto;html=1;exitX=0;exitY=0;exitDx=0;exitDy=0;entryX=1;entryY=0.5;entryDx=0;entryDy=0;endArrow=none;endFill=0;" parent="1" source="DzdwVPKW61eDhLBlSxj8-117" target="DzdwVPKW61eDhLBlSxj8-129" edge="1">
          <mxGeometry relative="1" as="geometry" />
        </mxCell>
        <mxCell id="DzdwVPKW61eDhLBlSxj8-117" value="Flight" style="shape=ext;margin=3;double=1;whiteSpace=wrap;html=1;align=center;" parent="1" vertex="1">
          <mxGeometry x="1080" y="1040" width="100" height="40" as="geometry" />
        </mxCell>
        <mxCell id="DzdwVPKW61eDhLBlSxj8-119" style="edgeStyle=orthogonalEdgeStyle;rounded=0;orthogonalLoop=1;jettySize=auto;html=1;exitX=0;exitY=0.5;exitDx=0;exitDy=0;entryX=1;entryY=0.5;entryDx=0;entryDy=0;endArrow=ERzeroToMany;endFill=0;" parent="1" source="DzdwVPKW61eDhLBlSxj8-118" target="DzdwVPKW61eDhLBlSxj8-117" edge="1">
          <mxGeometry relative="1" as="geometry" />
        </mxCell>
        <mxCell id="DzdwVPKW61eDhLBlSxj8-120" style="edgeStyle=orthogonalEdgeStyle;rounded=0;orthogonalLoop=1;jettySize=auto;html=1;exitX=1;exitY=0.5;exitDx=0;exitDy=0;entryX=0.5;entryY=1;entryDx=0;entryDy=0;endArrow=ERmandOne;endFill=0;" parent="1" source="DzdwVPKW61eDhLBlSxj8-118" target="DzdwVPKW61eDhLBlSxj8-75" edge="1">
          <mxGeometry relative="1" as="geometry" />
        </mxCell>
        <mxCell id="DzdwVPKW61eDhLBlSxj8-118" value="accociate" style="shape=rhombus;perimeter=rhombusPerimeter;whiteSpace=wrap;html=1;align=center;" parent="1" vertex="1">
          <mxGeometry x="1240" y="1030" width="120" height="60" as="geometry" />
        </mxCell>
        <mxCell id="DzdwVPKW61eDhLBlSxj8-122" style="edgeStyle=orthogonalEdgeStyle;rounded=0;orthogonalLoop=1;jettySize=auto;html=1;exitX=0.5;exitY=0;exitDx=0;exitDy=0;entryX=0.5;entryY=1;entryDx=0;entryDy=0;endArrow=ERmandOne;endFill=0;" parent="1" source="DzdwVPKW61eDhLBlSxj8-121" target="DzdwVPKW61eDhLBlSxj8-88" edge="1">
          <mxGeometry relative="1" as="geometry" />
        </mxCell>
        <mxCell id="DzdwVPKW61eDhLBlSxj8-123" style="edgeStyle=orthogonalEdgeStyle;rounded=0;orthogonalLoop=1;jettySize=auto;html=1;exitX=0.5;exitY=1;exitDx=0;exitDy=0;entryX=0.5;entryY=0;entryDx=0;entryDy=0;endArrow=ERzeroToMany;endFill=0;" parent="1" source="DzdwVPKW61eDhLBlSxj8-121" target="DzdwVPKW61eDhLBlSxj8-117" edge="1">
          <mxGeometry relative="1" as="geometry" />
        </mxCell>
        <mxCell id="DzdwVPKW61eDhLBlSxj8-121" value="operate" style="shape=rhombus;perimeter=rhombusPerimeter;whiteSpace=wrap;html=1;align=center;" parent="1" vertex="1">
          <mxGeometry x="1070" y="950" width="120" height="60" as="geometry" />
        </mxCell>
        <mxCell id="DzdwVPKW61eDhLBlSxj8-125" style="edgeStyle=orthogonalEdgeStyle;rounded=0;orthogonalLoop=1;jettySize=auto;html=1;exitX=0.5;exitY=0;exitDx=0;exitDy=0;entryX=0.5;entryY=1;entryDx=0;entryDy=0;endArrow=ERmandOne;endFill=0;" parent="1" source="DzdwVPKW61eDhLBlSxj8-124" target="DzdwVPKW61eDhLBlSxj8-30" edge="1">
          <mxGeometry relative="1" as="geometry" />
        </mxCell>
        <mxCell id="DzdwVPKW61eDhLBlSxj8-126" style="edgeStyle=orthogonalEdgeStyle;rounded=0;orthogonalLoop=1;jettySize=auto;html=1;exitX=1;exitY=0.5;exitDx=0;exitDy=0;entryX=0;entryY=0.5;entryDx=0;entryDy=0;endArrow=ERmandOne;endFill=0;" parent="1" source="DzdwVPKW61eDhLBlSxj8-124" target="DzdwVPKW61eDhLBlSxj8-117" edge="1">
          <mxGeometry relative="1" as="geometry" />
        </mxCell>
        <mxCell id="DzdwVPKW61eDhLBlSxj8-124" value="take off / land" style="shape=rhombus;perimeter=rhombusPerimeter;whiteSpace=wrap;html=1;align=center;" parent="1" vertex="1">
          <mxGeometry x="365" y="1030" width="120" height="60" as="geometry" />
        </mxCell>
        <mxCell id="DzdwVPKW61eDhLBlSxj8-127" value="&lt;span style=&quot;border-bottom: 1px dotted&quot;&gt;flight&lt;/span&gt;" style="ellipse;whiteSpace=wrap;html=1;align=center;" parent="1" vertex="1">
          <mxGeometry x="640" y="990" width="100" height="40" as="geometry" />
        </mxCell>
        <mxCell id="DzdwVPKW61eDhLBlSxj8-129" value="flight_id" style="ellipse;whiteSpace=wrap;html=1;align=center;fontStyle=4;" parent="1" vertex="1">
          <mxGeometry x="910" y="980" width="100" height="40" as="geometry" />
        </mxCell>
        <mxCell id="DzdwVPKW61eDhLBlSxj8-138" style="edgeStyle=orthogonalEdgeStyle;rounded=0;orthogonalLoop=1;jettySize=auto;html=1;exitX=1;exitY=0;exitDx=0;exitDy=0;entryX=0.5;entryY=1;entryDx=0;entryDy=0;endArrow=none;endFill=0;" parent="1" source="JigiFPAdXV7mOYjsng4S-2" target="DzdwVPKW61eDhLBlSxj8-136" edge="1">
          <mxGeometry relative="1" as="geometry">
            <mxPoint x="370" y="1225" as="sourcePoint" />
          </mxGeometry>
        </mxCell>
        <mxCell id="DzdwVPKW61eDhLBlSxj8-139" style="edgeStyle=orthogonalEdgeStyle;rounded=0;orthogonalLoop=1;jettySize=auto;html=1;exitX=1;exitY=0;exitDx=0;exitDy=0;entryX=0.5;entryY=1;entryDx=0;entryDy=0;endArrow=none;endFill=0;" parent="1" source="JigiFPAdXV7mOYjsng4S-2" target="DzdwVPKW61eDhLBlSxj8-137" edge="1">
          <mxGeometry relative="1" as="geometry">
            <mxPoint x="370" y="1225" as="sourcePoint" />
          </mxGeometry>
        </mxCell>
        <mxCell id="DzdwVPKW61eDhLBlSxj8-152" style="edgeStyle=orthogonalEdgeStyle;rounded=0;orthogonalLoop=1;jettySize=auto;html=1;exitX=1;exitY=0;exitDx=0;exitDy=0;entryX=0.5;entryY=1;entryDx=0;entryDy=0;endArrow=none;endFill=0;" parent="1" source="JigiFPAdXV7mOYjsng4S-2" target="DzdwVPKW61eDhLBlSxj8-151" edge="1">
          <mxGeometry relative="1" as="geometry">
            <mxPoint x="370" y="1225" as="sourcePoint" />
          </mxGeometry>
        </mxCell>
        <mxCell id="DzdwVPKW61eDhLBlSxj8-134" style="edgeStyle=orthogonalEdgeStyle;rounded=0;orthogonalLoop=1;jettySize=auto;html=1;exitX=0.5;exitY=0;exitDx=0;exitDy=0;entryX=0.5;entryY=1;entryDx=0;entryDy=0;endArrow=ERzeroToOne;endFill=0;" parent="1" source="DzdwVPKW61eDhLBlSxj8-132" target="DzdwVPKW61eDhLBlSxj8-117" edge="1">
          <mxGeometry relative="1" as="geometry" />
        </mxCell>
        <mxCell id="DzdwVPKW61eDhLBlSxj8-135" style="edgeStyle=orthogonalEdgeStyle;rounded=0;orthogonalLoop=1;jettySize=auto;html=1;exitX=0.5;exitY=1;exitDx=0;exitDy=0;entryX=0.5;entryY=0;entryDx=0;entryDy=0;endArrow=ERoneToMany;endFill=0;" parent="1" source="DzdwVPKW61eDhLBlSxj8-132" target="JigiFPAdXV7mOYjsng4S-2" edge="1">
          <mxGeometry relative="1" as="geometry">
            <mxPoint x="320" y="1225" as="targetPoint" />
          </mxGeometry>
        </mxCell>
        <mxCell id="DzdwVPKW61eDhLBlSxj8-132" value="issue" style="shape=rhombus;perimeter=rhombusPerimeter;whiteSpace=wrap;html=1;align=center;" parent="1" vertex="1">
          <mxGeometry x="260" y="1120" width="120" height="60" as="geometry" />
        </mxCell>
        <mxCell id="DzdwVPKW61eDhLBlSxj8-136" value="ticket_id" style="ellipse;whiteSpace=wrap;html=1;align=center;fontStyle=4;" parent="1" vertex="1">
          <mxGeometry x="390" y="1120" width="100" height="40" as="geometry" />
        </mxCell>
        <mxCell id="DzdwVPKW61eDhLBlSxj8-137" value="&lt;span style=&quot;border-bottom: 1px dotted&quot;&gt;flight&lt;/span&gt;" style="ellipse;whiteSpace=wrap;html=1;align=center;" parent="1" vertex="1">
          <mxGeometry x="500" y="1120" width="100" height="40" as="geometry" />
        </mxCell>
        <mxCell id="DzdwVPKW61eDhLBlSxj8-142" style="edgeStyle=orthogonalEdgeStyle;rounded=0;orthogonalLoop=1;jettySize=auto;html=1;exitX=0;exitY=0;exitDx=50;exitDy=0;exitPerimeter=0;entryX=0.5;entryY=1;entryDx=0;entryDy=0;endArrow=none;endFill=0;" parent="1" source="DzdwVPKW61eDhLBlSxj8-140" target="JigiFPAdXV7mOYjsng4S-1" edge="1">
          <mxGeometry relative="1" as="geometry">
            <mxPoint x="1470" y="1165" as="targetPoint" />
          </mxGeometry>
        </mxCell>
        <mxCell id="DzdwVPKW61eDhLBlSxj8-144" style="edgeStyle=orthogonalEdgeStyle;rounded=0;orthogonalLoop=1;jettySize=auto;html=1;exitX=0.5;exitY=1;exitDx=0;exitDy=0;exitPerimeter=0;entryX=0.5;entryY=0;entryDx=0;entryDy=0;endArrow=none;endFill=0;" parent="1" source="DzdwVPKW61eDhLBlSxj8-140" target="DzdwVPKW61eDhLBlSxj8-156" edge="1">
          <mxGeometry relative="1" as="geometry">
            <mxPoint x="1470" y="1340" as="targetPoint" />
          </mxGeometry>
        </mxCell>
        <mxCell id="DzdwVPKW61eDhLBlSxj8-140" value="ISA" style="verticalLabelPosition=middle;verticalAlign=middle;html=1;shape=mxgraph.basic.acute_triangle;dx=0.5;container=0;horizontal=1;labelPosition=center;align=center;" parent="1" vertex="1">
          <mxGeometry x="1420" y="1215" width="100" height="70" as="geometry" />
        </mxCell>
        <mxCell id="DzdwVPKW61eDhLBlSxj8-146" style="edgeStyle=orthogonalEdgeStyle;rounded=0;orthogonalLoop=1;jettySize=auto;html=1;exitX=0;exitY=0;exitDx=50;exitDy=0;exitPerimeter=0;entryX=0.5;entryY=1;entryDx=0;entryDy=0;endArrow=none;endFill=0;" parent="1" source="DzdwVPKW61eDhLBlSxj8-145" target="DzdwVPKW61eDhLBlSxj8-156" edge="1">
          <mxGeometry relative="1" as="geometry">
            <mxPoint x="1470" y="1380" as="targetPoint" />
          </mxGeometry>
        </mxCell>
        <mxCell id="DzdwVPKW61eDhLBlSxj8-148" style="edgeStyle=orthogonalEdgeStyle;rounded=0;orthogonalLoop=1;jettySize=auto;html=1;exitX=0.5;exitY=1;exitDx=0;exitDy=0;exitPerimeter=0;entryX=0.5;entryY=0;entryDx=0;entryDy=0;endArrow=none;endFill=0;" parent="1" source="DzdwVPKW61eDhLBlSxj8-145" target="DzdwVPKW61eDhLBlSxj8-147" edge="1">
          <mxGeometry relative="1" as="geometry" />
        </mxCell>
        <mxCell id="DzdwVPKW61eDhLBlSxj8-145" value="ISA" style="verticalLabelPosition=middle;verticalAlign=middle;html=1;shape=mxgraph.basic.acute_triangle;dx=0.5;container=0;horizontal=1;labelPosition=center;align=center;" parent="1" vertex="1">
          <mxGeometry x="1420" y="1420" width="100" height="70" as="geometry" />
        </mxCell>
        <mxCell id="DzdwVPKW61eDhLBlSxj8-147" value="User" style="whiteSpace=wrap;html=1;align=center;" parent="1" vertex="1">
          <mxGeometry x="1420" y="1540" width="100" height="40" as="geometry" />
        </mxCell>
        <mxCell id="DzdwVPKW61eDhLBlSxj8-150" style="edgeStyle=orthogonalEdgeStyle;rounded=0;orthogonalLoop=1;jettySize=auto;html=1;exitX=1;exitY=0.5;exitDx=0;exitDy=0;entryX=0;entryY=0;entryDx=0;entryDy=0;endArrow=ERzeroToOne;endFill=0;" parent="1" source="DzdwVPKW61eDhLBlSxj8-149" target="DzdwVPKW61eDhLBlSxj8-156" edge="1">
          <mxGeometry relative="1" as="geometry">
            <mxPoint x="1420" y="1360" as="targetPoint" />
          </mxGeometry>
        </mxCell>
        <mxCell id="DzdwVPKW61eDhLBlSxj8-155" style="edgeStyle=orthogonalEdgeStyle;rounded=0;orthogonalLoop=1;jettySize=auto;html=1;exitX=0;exitY=0.5;exitDx=0;exitDy=0;endArrow=ERoneToMany;endFill=0;entryX=1;entryY=0.5;entryDx=0;entryDy=0;" parent="1" source="DzdwVPKW61eDhLBlSxj8-149" target="JigiFPAdXV7mOYjsng4S-2" edge="1">
          <mxGeometry relative="1" as="geometry">
            <mxPoint x="370" y="1260" as="targetPoint" />
          </mxGeometry>
        </mxCell>
        <mxCell id="DzdwVPKW61eDhLBlSxj8-149" value="own" style="shape=rhombus;perimeter=rhombusPerimeter;whiteSpace=wrap;html=1;align=center;" parent="1" vertex="1">
          <mxGeometry x="600" y="1270" width="120" height="60" as="geometry" />
        </mxCell>
        <mxCell id="DzdwVPKW61eDhLBlSxj8-151" value="&lt;span style=&quot;border-bottom: 1px dotted&quot;&gt;customer&lt;/span&gt;" style="ellipse;whiteSpace=wrap;html=1;align=center;" parent="1" vertex="1">
          <mxGeometry x="610" y="1120" width="100" height="40" as="geometry" />
        </mxCell>
        <mxCell id="DzdwVPKW61eDhLBlSxj8-163" style="edgeStyle=orthogonalEdgeStyle;rounded=0;orthogonalLoop=1;jettySize=auto;html=1;exitX=1;exitY=0.25;exitDx=0;exitDy=0;entryX=0;entryY=0.5;entryDx=0;entryDy=0;endArrow=none;endFill=0;" parent="1" source="DzdwVPKW61eDhLBlSxj8-156" target="DzdwVPKW61eDhLBlSxj8-160" edge="1">
          <mxGeometry relative="1" as="geometry" />
        </mxCell>
        <mxCell id="DzdwVPKW61eDhLBlSxj8-168" style="edgeStyle=orthogonalEdgeStyle;rounded=0;orthogonalLoop=1;jettySize=auto;html=1;exitX=1;exitY=0.25;exitDx=0;exitDy=0;entryX=0;entryY=0.5;entryDx=0;entryDy=0;endArrow=none;endFill=0;" parent="1" source="DzdwVPKW61eDhLBlSxj8-156" target="DzdwVPKW61eDhLBlSxj8-166" edge="1">
          <mxGeometry relative="1" as="geometry" />
        </mxCell>
        <mxCell id="DzdwVPKW61eDhLBlSxj8-156" value="Customer" style="shape=ext;margin=3;double=1;whiteSpace=wrap;html=1;align=center;" parent="1" vertex="1">
          <mxGeometry x="1420" y="1340" width="100" height="40" as="geometry" />
        </mxCell>
        <mxCell id="DzdwVPKW61eDhLBlSxj8-158" style="edgeStyle=orthogonalEdgeStyle;rounded=0;orthogonalLoop=1;jettySize=auto;html=1;exitX=0;exitY=0.5;exitDx=0;exitDy=0;entryX=1;entryY=0.5;entryDx=0;entryDy=0;endArrow=ERoneToMany;endFill=0;" parent="1" source="JigiFPAdXV7mOYjsng4S-58" target="DzdwVPKW61eDhLBlSxj8-43" edge="1">
          <mxGeometry relative="1" as="geometry">
            <mxPoint x="790" y="1360" as="sourcePoint" />
          </mxGeometry>
        </mxCell>
        <mxCell id="DzdwVPKW61eDhLBlSxj8-159" style="edgeStyle=orthogonalEdgeStyle;rounded=0;orthogonalLoop=1;jettySize=auto;html=1;exitX=1;exitY=0.5;exitDx=0;exitDy=0;entryX=0;entryY=0.5;entryDx=0;entryDy=0;endArrow=ERzeroToMany;endFill=0;" parent="1" source="JigiFPAdXV7mOYjsng4S-58" target="DzdwVPKW61eDhLBlSxj8-156" edge="1">
          <mxGeometry relative="1" as="geometry">
            <mxPoint x="910" y="1360" as="sourcePoint" />
          </mxGeometry>
        </mxCell>
        <mxCell id="DzdwVPKW61eDhLBlSxj8-160" value="customer_id" style="ellipse;whiteSpace=wrap;html=1;align=center;fontStyle=4;" parent="1" vertex="1">
          <mxGeometry x="1560" y="1300" width="100" height="40" as="geometry" />
        </mxCell>
        <mxCell id="DzdwVPKW61eDhLBlSxj8-165" value="&lt;span style=&quot;border-bottom: 1px dotted&quot;&gt;customer&lt;/span&gt;" style="ellipse;whiteSpace=wrap;html=1;align=center;" parent="1" vertex="1">
          <mxGeometry x="800" y="1410" width="100" height="40" as="geometry" />
        </mxCell>
        <mxCell id="DzdwVPKW61eDhLBlSxj8-166" value="&lt;span style=&quot;border-bottom: 1px dotted&quot;&gt;user&lt;/span&gt;" style="ellipse;whiteSpace=wrap;html=1;align=center;" parent="1" vertex="1">
          <mxGeometry x="1560" y="1355" width="100" height="40" as="geometry" />
        </mxCell>
        <mxCell id="DzdwVPKW61eDhLBlSxj8-169" value="&lt;span style=&quot;border-bottom: 1px dotted&quot;&gt;customer&lt;/span&gt;" style="ellipse;whiteSpace=wrap;html=1;align=center;" parent="1" vertex="1">
          <mxGeometry x="1560" y="1200" width="100" height="40" as="geometry" />
        </mxCell>
        <mxCell id="DzdwVPKW61eDhLBlSxj8-171" value="Notification" style="whiteSpace=wrap;html=1;align=center;" parent="1" vertex="1">
          <mxGeometry x="1730" y="1230" width="100" height="40" as="geometry" />
        </mxCell>
        <mxCell id="DzdwVPKW61eDhLBlSxj8-173" style="edgeStyle=orthogonalEdgeStyle;rounded=0;orthogonalLoop=1;jettySize=auto;html=1;exitX=0;exitY=0.5;exitDx=0;exitDy=0;entryX=1;entryY=0;entryDx=0;entryDy=0;endArrow=ERzeroToOne;endFill=0;" parent="1" source="DzdwVPKW61eDhLBlSxj8-172" target="JigiFPAdXV7mOYjsng4S-1" edge="1">
          <mxGeometry relative="1" as="geometry">
            <mxPoint x="1520" y="1125" as="targetPoint" />
          </mxGeometry>
        </mxCell>
        <mxCell id="DzdwVPKW61eDhLBlSxj8-174" style="edgeStyle=orthogonalEdgeStyle;rounded=0;orthogonalLoop=1;jettySize=auto;html=1;exitX=0.5;exitY=1;exitDx=0;exitDy=0;entryX=0.5;entryY=0;entryDx=0;entryDy=0;endArrow=ERoneToMany;endFill=0;" parent="1" source="DzdwVPKW61eDhLBlSxj8-172" target="DzdwVPKW61eDhLBlSxj8-171" edge="1">
          <mxGeometry relative="1" as="geometry" />
        </mxCell>
        <mxCell id="DzdwVPKW61eDhLBlSxj8-172" value="recieve" style="shape=rhombus;perimeter=rhombusPerimeter;whiteSpace=wrap;html=1;align=center;" parent="1" vertex="1">
          <mxGeometry x="1720" y="1040" width="120" height="60" as="geometry" />
        </mxCell>
        <mxCell id="DzdwVPKW61eDhLBlSxj8-176" style="edgeStyle=orthogonalEdgeStyle;rounded=0;orthogonalLoop=1;jettySize=auto;html=1;exitX=1;exitY=0.5;exitDx=0;exitDy=0;entryX=0.25;entryY=1;entryDx=0;entryDy=0;endArrow=ERoneToMany;endFill=0;" parent="1" source="DzdwVPKW61eDhLBlSxj8-175" target="DzdwVPKW61eDhLBlSxj8-171" edge="1">
          <mxGeometry relative="1" as="geometry" />
        </mxCell>
        <mxCell id="DzdwVPKW61eDhLBlSxj8-177" style="edgeStyle=orthogonalEdgeStyle;rounded=0;orthogonalLoop=1;jettySize=auto;html=1;exitX=0;exitY=0.5;exitDx=0;exitDy=0;entryX=1;entryY=1;entryDx=0;entryDy=0;endArrow=ERzeroToOne;endFill=0;" parent="1" source="DzdwVPKW61eDhLBlSxj8-175" target="DzdwVPKW61eDhLBlSxj8-156" edge="1">
          <mxGeometry relative="1" as="geometry" />
        </mxCell>
        <mxCell id="DzdwVPKW61eDhLBlSxj8-175" value="recieve" style="shape=rhombus;perimeter=rhombusPerimeter;whiteSpace=wrap;html=1;align=center;" parent="1" vertex="1">
          <mxGeometry x="1610" y="1390" width="120" height="60" as="geometry" />
        </mxCell>
        <mxCell id="DzdwVPKW61eDhLBlSxj8-186" style="edgeStyle=orthogonalEdgeStyle;rounded=0;orthogonalLoop=1;jettySize=auto;html=1;exitX=1;exitY=0.5;exitDx=0;exitDy=0;entryX=0.75;entryY=1;entryDx=0;entryDy=0;endArrow=ERzeroToMany;endFill=0;" parent="1" source="DzdwVPKW61eDhLBlSxj8-185" target="DzdwVPKW61eDhLBlSxj8-171" edge="1">
          <mxGeometry relative="1" as="geometry" />
        </mxCell>
        <mxCell id="DzdwVPKW61eDhLBlSxj8-187" style="edgeStyle=orthogonalEdgeStyle;rounded=0;orthogonalLoop=1;jettySize=auto;html=1;exitX=0;exitY=0.5;exitDx=0;exitDy=0;entryX=1;entryY=0.5;entryDx=0;entryDy=0;endArrow=ERzeroToOne;endFill=0;" parent="1" source="DzdwVPKW61eDhLBlSxj8-185" target="DzdwVPKW61eDhLBlSxj8-147" edge="1">
          <mxGeometry relative="1" as="geometry" />
        </mxCell>
        <mxCell id="DzdwVPKW61eDhLBlSxj8-185" value="recieve" style="shape=rhombus;perimeter=rhombusPerimeter;whiteSpace=wrap;html=1;align=center;" parent="1" vertex="1">
          <mxGeometry x="1660" y="1530" width="120" height="60" as="geometry" />
        </mxCell>
        <mxCell id="JigiFPAdXV7mOYjsng4S-1" value="Passenger" style="shape=ext;margin=3;double=1;whiteSpace=wrap;html=1;align=center;" vertex="1" parent="1">
          <mxGeometry x="1420" y="1120" width="100" height="40" as="geometry" />
        </mxCell>
        <mxCell id="JigiFPAdXV7mOYjsng4S-2" value="Ticket" style="whiteSpace=wrap;html=1;align=center;" vertex="1" parent="1">
          <mxGeometry x="270" y="1230" width="100" height="40" as="geometry" />
        </mxCell>
        <mxCell id="JigiFPAdXV7mOYjsng4S-14" style="edgeStyle=orthogonalEdgeStyle;rounded=0;orthogonalLoop=1;jettySize=auto;html=1;exitX=0.5;exitY=1;exitDx=0;exitDy=0;entryX=0.5;entryY=0;entryDx=0;entryDy=0;endArrow=none;endFill=0;" edge="1" parent="1" source="JigiFPAdXV7mOYjsng4S-3" target="JigiFPAdXV7mOYjsng4S-10">
          <mxGeometry relative="1" as="geometry" />
        </mxCell>
        <mxCell id="JigiFPAdXV7mOYjsng4S-15" style="edgeStyle=orthogonalEdgeStyle;rounded=0;orthogonalLoop=1;jettySize=auto;html=1;exitX=0.5;exitY=1;exitDx=0;exitDy=0;entryX=0.5;entryY=0;entryDx=0;entryDy=0;endArrow=none;endFill=0;" edge="1" parent="1" source="JigiFPAdXV7mOYjsng4S-3" target="JigiFPAdXV7mOYjsng4S-11">
          <mxGeometry relative="1" as="geometry" />
        </mxCell>
        <mxCell id="JigiFPAdXV7mOYjsng4S-16" style="edgeStyle=orthogonalEdgeStyle;rounded=0;orthogonalLoop=1;jettySize=auto;html=1;exitX=0.5;exitY=1;exitDx=0;exitDy=0;entryX=0.5;entryY=0;entryDx=0;entryDy=0;endArrow=none;endFill=0;" edge="1" parent="1" source="JigiFPAdXV7mOYjsng4S-3" target="JigiFPAdXV7mOYjsng4S-12">
          <mxGeometry relative="1" as="geometry" />
        </mxCell>
        <mxCell id="JigiFPAdXV7mOYjsng4S-3" value="Baggage" style="shape=ext;margin=3;double=1;whiteSpace=wrap;html=1;align=center;" vertex="1" parent="1">
          <mxGeometry x="390" y="1530" width="100" height="40" as="geometry" />
        </mxCell>
        <mxCell id="JigiFPAdXV7mOYjsng4S-8" style="edgeStyle=orthogonalEdgeStyle;rounded=0;orthogonalLoop=1;jettySize=auto;html=1;exitX=0.5;exitY=1;exitDx=0;exitDy=0;entryX=0.5;entryY=0;entryDx=0;entryDy=0;endArrow=ERzeroToMany;endFill=0;" edge="1" parent="1" source="JigiFPAdXV7mOYjsng4S-4" target="JigiFPAdXV7mOYjsng4S-3">
          <mxGeometry relative="1" as="geometry" />
        </mxCell>
        <mxCell id="JigiFPAdXV7mOYjsng4S-9" style="edgeStyle=orthogonalEdgeStyle;rounded=0;orthogonalLoop=1;jettySize=auto;html=1;exitX=0.5;exitY=0;exitDx=0;exitDy=0;entryX=1;entryY=0.75;entryDx=0;entryDy=0;endArrow=ERmandOne;endFill=0;" edge="1" parent="1" source="JigiFPAdXV7mOYjsng4S-4" target="JigiFPAdXV7mOYjsng4S-2">
          <mxGeometry relative="1" as="geometry" />
        </mxCell>
        <mxCell id="JigiFPAdXV7mOYjsng4S-4" value="tied" style="shape=rhombus;perimeter=rhombusPerimeter;whiteSpace=wrap;html=1;align=center;" vertex="1" parent="1">
          <mxGeometry x="380" y="1395" width="120" height="60" as="geometry" />
        </mxCell>
        <mxCell id="JigiFPAdXV7mOYjsng4S-6" style="edgeStyle=orthogonalEdgeStyle;rounded=0;orthogonalLoop=1;jettySize=auto;html=1;exitX=0.5;exitY=0;exitDx=0;exitDy=0;entryX=1;entryY=0.25;entryDx=0;entryDy=0;endArrow=ERmandOne;endFill=0;" edge="1" parent="1" source="JigiFPAdXV7mOYjsng4S-5" target="DzdwVPKW61eDhLBlSxj8-38">
          <mxGeometry relative="1" as="geometry" />
        </mxCell>
        <mxCell id="JigiFPAdXV7mOYjsng4S-7" style="edgeStyle=orthogonalEdgeStyle;rounded=0;orthogonalLoop=1;jettySize=auto;html=1;exitX=0.5;exitY=1;exitDx=0;exitDy=0;entryX=0;entryY=0.5;entryDx=0;entryDy=0;endArrow=ERzeroToMany;endFill=0;" edge="1" parent="1" source="JigiFPAdXV7mOYjsng4S-5" target="JigiFPAdXV7mOYjsng4S-3">
          <mxGeometry relative="1" as="geometry" />
        </mxCell>
        <mxCell id="JigiFPAdXV7mOYjsng4S-5" value="sent" style="shape=rhombus;perimeter=rhombusPerimeter;whiteSpace=wrap;html=1;align=center;" vertex="1" parent="1">
          <mxGeometry x="190" y="1470" width="120" height="60" as="geometry" />
        </mxCell>
        <mxCell id="JigiFPAdXV7mOYjsng4S-10" value="baggage_id" style="ellipse;whiteSpace=wrap;html=1;align=center;fontStyle=4;" vertex="1" parent="1">
          <mxGeometry x="280" y="1610" width="100" height="40" as="geometry" />
        </mxCell>
        <mxCell id="JigiFPAdXV7mOYjsng4S-11" value="&lt;span style=&quot;border-bottom: 1px dotted&quot;&gt;ticket&lt;/span&gt;" style="ellipse;whiteSpace=wrap;html=1;align=center;" vertex="1" parent="1">
          <mxGeometry x="390" y="1610" width="100" height="40" as="geometry" />
        </mxCell>
        <mxCell id="JigiFPAdXV7mOYjsng4S-12" value="&lt;span style=&quot;border-bottom: 1px dotted&quot;&gt;luggage_claim&lt;/span&gt;" style="ellipse;whiteSpace=wrap;html=1;align=center;" vertex="1" parent="1">
          <mxGeometry x="500" y="1610" width="100" height="40" as="geometry" />
        </mxCell>
        <mxCell id="JigiFPAdXV7mOYjsng4S-18" style="edgeStyle=orthogonalEdgeStyle;rounded=0;orthogonalLoop=1;jettySize=auto;html=1;exitX=0.5;exitY=1;exitDx=0;exitDy=0;entryX=0;entryY=0.5;entryDx=0;entryDy=0;endArrow=ERzeroToMany;endFill=0;" edge="1" parent="1" source="JigiFPAdXV7mOYjsng4S-61" target="JigiFPAdXV7mOYjsng4S-2">
          <mxGeometry relative="1" as="geometry">
            <mxPoint x="10" y="795" as="sourcePoint" />
          </mxGeometry>
        </mxCell>
        <mxCell id="JigiFPAdXV7mOYjsng4S-19" style="edgeStyle=orthogonalEdgeStyle;rounded=0;orthogonalLoop=1;jettySize=auto;html=1;exitX=0.5;exitY=0;exitDx=0;exitDy=0;entryX=0.5;entryY=0;entryDx=0;entryDy=0;endArrow=ERzeroToMany;endFill=0;" edge="1" parent="1" source="JigiFPAdXV7mOYjsng4S-61" target="DzdwVPKW61eDhLBlSxj8-61">
          <mxGeometry relative="1" as="geometry">
            <mxPoint x="10" y="735" as="sourcePoint" />
          </mxGeometry>
        </mxCell>
        <mxCell id="JigiFPAdXV7mOYjsng4S-20" value="Economy" style="shape=ext;margin=3;double=1;whiteSpace=wrap;html=1;align=center;" vertex="1" parent="1">
          <mxGeometry x="960" y="1125" width="100" height="40" as="geometry" />
        </mxCell>
        <mxCell id="JigiFPAdXV7mOYjsng4S-21" value="Business" style="shape=ext;margin=3;double=1;whiteSpace=wrap;html=1;align=center;" vertex="1" parent="1">
          <mxGeometry x="960" y="1175" width="100" height="40" as="geometry" />
        </mxCell>
        <mxCell id="JigiFPAdXV7mOYjsng4S-22" value="First Class" style="shape=ext;margin=3;double=1;whiteSpace=wrap;html=1;align=center;" vertex="1" parent="1">
          <mxGeometry x="960" y="1225" width="100" height="40" as="geometry" />
        </mxCell>
        <mxCell id="JigiFPAdXV7mOYjsng4S-27" style="edgeStyle=orthogonalEdgeStyle;rounded=0;orthogonalLoop=1;jettySize=auto;html=1;exitX=0;exitY=1;exitDx=0;exitDy=0;exitPerimeter=0;endArrow=ERzeroToOne;endFill=0;entryX=0;entryY=0.5;entryDx=0;entryDy=0;" edge="1" parent="1" source="JigiFPAdXV7mOYjsng4S-23" target="JigiFPAdXV7mOYjsng4S-20">
          <mxGeometry relative="1" as="geometry">
            <mxPoint x="960" y="1140" as="targetPoint" />
          </mxGeometry>
        </mxCell>
        <mxCell id="JigiFPAdXV7mOYjsng4S-28" style="edgeStyle=orthogonalEdgeStyle;rounded=0;orthogonalLoop=1;jettySize=auto;html=1;exitX=0;exitY=1;exitDx=0;exitDy=0;exitPerimeter=0;entryX=0;entryY=0.5;entryDx=0;entryDy=0;endArrow=ERzeroToOne;endFill=0;" edge="1" parent="1" source="JigiFPAdXV7mOYjsng4S-23" target="JigiFPAdXV7mOYjsng4S-21">
          <mxGeometry relative="1" as="geometry" />
        </mxCell>
        <mxCell id="JigiFPAdXV7mOYjsng4S-29" style="edgeStyle=orthogonalEdgeStyle;rounded=0;orthogonalLoop=1;jettySize=auto;html=1;exitX=0;exitY=1;exitDx=0;exitDy=0;exitPerimeter=0;entryX=0;entryY=0.5;entryDx=0;entryDy=0;endArrow=ERzeroToOne;endFill=0;" edge="1" parent="1" source="JigiFPAdXV7mOYjsng4S-23" target="JigiFPAdXV7mOYjsng4S-22">
          <mxGeometry relative="1" as="geometry" />
        </mxCell>
        <mxCell id="JigiFPAdXV7mOYjsng4S-23" value="" style="verticalLabelPosition=middle;verticalAlign=middle;html=1;shape=mxgraph.basic.acute_triangle;dx=0.5;container=0;horizontal=1;labelPosition=center;align=center;rotation=-180;" vertex="1" parent="1">
          <mxGeometry x="750" y="1165" width="100" height="70" as="geometry" />
        </mxCell>
        <mxCell id="JigiFPAdXV7mOYjsng4S-26" style="edgeStyle=orthogonalEdgeStyle;rounded=0;orthogonalLoop=1;jettySize=auto;html=1;exitX=0;exitY=0;exitDx=50;exitDy=0;entryX=1;entryY=0.25;entryDx=0;entryDy=0;endArrow=ERmandOne;endFill=0;exitPerimeter=0;" edge="1" parent="1" source="JigiFPAdXV7mOYjsng4S-23" target="JigiFPAdXV7mOYjsng4S-2">
          <mxGeometry relative="1" as="geometry" />
        </mxCell>
        <mxCell id="JigiFPAdXV7mOYjsng4S-24" value="ISA" style="text;html=1;align=center;verticalAlign=middle;whiteSpace=wrap;rounded=0;" vertex="1" parent="1">
          <mxGeometry x="770" y="1180" width="60" height="30" as="geometry" />
        </mxCell>
        <mxCell id="JigiFPAdXV7mOYjsng4S-69" style="edgeStyle=orthogonalEdgeStyle;rounded=0;orthogonalLoop=1;jettySize=auto;html=1;exitX=0.5;exitY=0;exitDx=0;exitDy=0;entryX=0.5;entryY=1;entryDx=0;entryDy=0;endArrow=none;endFill=0;" edge="1" parent="1" source="JigiFPAdXV7mOYjsng4S-33" target="JigiFPAdXV7mOYjsng4S-67">
          <mxGeometry relative="1" as="geometry" />
        </mxCell>
        <mxCell id="JigiFPAdXV7mOYjsng4S-33" value="Security Pre-Checker" style="shape=ext;margin=3;double=1;whiteSpace=wrap;html=1;align=center;" vertex="1" parent="1">
          <mxGeometry x="1100" y="1470" width="100" height="40" as="geometry" />
        </mxCell>
        <mxCell id="JigiFPAdXV7mOYjsng4S-41" style="edgeStyle=orthogonalEdgeStyle;rounded=0;orthogonalLoop=1;jettySize=auto;html=1;exitX=0.5;exitY=1;exitDx=0;exitDy=0;exitPerimeter=0;endArrow=ERmandOne;endFill=0;entryX=1;entryY=0.25;entryDx=0;entryDy=0;" edge="1" parent="1" source="JigiFPAdXV7mOYjsng4S-36" target="JigiFPAdXV7mOYjsng4S-42">
          <mxGeometry relative="1" as="geometry">
            <mxPoint x="840" y="1690" as="targetPoint" />
          </mxGeometry>
        </mxCell>
        <mxCell id="JigiFPAdXV7mOYjsng4S-43" style="edgeStyle=orthogonalEdgeStyle;rounded=0;orthogonalLoop=1;jettySize=auto;html=1;exitX=0;exitY=0;exitDx=50;exitDy=0;exitPerimeter=0;entryX=0.5;entryY=1;entryDx=0;entryDy=0;endArrow=ERzeroToOne;endFill=0;" edge="1" parent="1" source="JigiFPAdXV7mOYjsng4S-36" target="JigiFPAdXV7mOYjsng4S-33">
          <mxGeometry relative="1" as="geometry" />
        </mxCell>
        <mxCell id="JigiFPAdXV7mOYjsng4S-44" style="edgeStyle=orthogonalEdgeStyle;rounded=0;orthogonalLoop=1;jettySize=auto;html=1;exitX=0;exitY=0;exitDx=50;exitDy=0;exitPerimeter=0;entryX=0.5;entryY=1;entryDx=0;entryDy=0;endArrow=ERzeroToOne;endFill=0;" edge="1" parent="1" source="JigiFPAdXV7mOYjsng4S-36" target="JigiFPAdXV7mOYjsng4S-37">
          <mxGeometry relative="1" as="geometry" />
        </mxCell>
        <mxCell id="JigiFPAdXV7mOYjsng4S-45" style="edgeStyle=orthogonalEdgeStyle;rounded=0;orthogonalLoop=1;jettySize=auto;html=1;exitX=0;exitY=0;exitDx=50;exitDy=0;exitPerimeter=0;entryX=0.5;entryY=1;entryDx=0;entryDy=0;endArrow=ERzeroToOne;endFill=0;" edge="1" parent="1" source="JigiFPAdXV7mOYjsng4S-36" target="JigiFPAdXV7mOYjsng4S-38">
          <mxGeometry relative="1" as="geometry" />
        </mxCell>
        <mxCell id="JigiFPAdXV7mOYjsng4S-36" value="ISA" style="verticalLabelPosition=middle;verticalAlign=middle;html=1;shape=mxgraph.basic.acute_triangle;dx=0.5;container=0;horizontal=1;labelPosition=center;align=center;" vertex="1" parent="1">
          <mxGeometry x="1100" y="1580" width="100" height="70" as="geometry" />
        </mxCell>
        <mxCell id="JigiFPAdXV7mOYjsng4S-37" value="Flight Crew" style="shape=ext;margin=3;double=1;whiteSpace=wrap;html=1;align=center;" vertex="1" parent="1">
          <mxGeometry x="970" y="1470" width="100" height="40" as="geometry" />
        </mxCell>
        <mxCell id="JigiFPAdXV7mOYjsng4S-38" value="Ground Crew" style="shape=ext;margin=3;double=1;whiteSpace=wrap;html=1;align=center;" vertex="1" parent="1">
          <mxGeometry x="840" y="1470" width="100" height="40" as="geometry" />
        </mxCell>
        <mxCell id="JigiFPAdXV7mOYjsng4S-51" style="edgeStyle=orthogonalEdgeStyle;rounded=0;orthogonalLoop=1;jettySize=auto;html=1;exitX=0;exitY=0.75;exitDx=0;exitDy=0;entryX=0;entryY=0.5;entryDx=0;entryDy=0;endArrow=none;endFill=0;" edge="1" parent="1" source="JigiFPAdXV7mOYjsng4S-42" target="JigiFPAdXV7mOYjsng4S-50">
          <mxGeometry relative="1" as="geometry" />
        </mxCell>
        <mxCell id="JigiFPAdXV7mOYjsng4S-52" style="edgeStyle=orthogonalEdgeStyle;rounded=0;orthogonalLoop=1;jettySize=auto;html=1;exitX=1;exitY=0.75;exitDx=0;exitDy=0;entryX=1;entryY=0.5;entryDx=0;entryDy=0;endArrow=none;endFill=0;" edge="1" parent="1" source="JigiFPAdXV7mOYjsng4S-42" target="JigiFPAdXV7mOYjsng4S-50">
          <mxGeometry relative="1" as="geometry" />
        </mxCell>
        <mxCell id="JigiFPAdXV7mOYjsng4S-54" style="edgeStyle=orthogonalEdgeStyle;rounded=0;orthogonalLoop=1;jettySize=auto;html=1;exitX=0.25;exitY=0;exitDx=0;exitDy=0;entryX=0.5;entryY=1;entryDx=0;entryDy=0;endArrow=none;endFill=0;" edge="1" parent="1" source="JigiFPAdXV7mOYjsng4S-42" target="JigiFPAdXV7mOYjsng4S-53">
          <mxGeometry relative="1" as="geometry" />
        </mxCell>
        <mxCell id="JigiFPAdXV7mOYjsng4S-42" value="Employee" style="shape=ext;margin=3;double=1;whiteSpace=wrap;html=1;align=center;" vertex="1" parent="1">
          <mxGeometry x="980" y="1680" width="100" height="40" as="geometry" />
        </mxCell>
        <mxCell id="JigiFPAdXV7mOYjsng4S-47" style="edgeStyle=orthogonalEdgeStyle;rounded=0;orthogonalLoop=1;jettySize=auto;html=1;exitX=0;exitY=0.5;exitDx=0;exitDy=0;entryX=1;entryY=0.5;entryDx=0;entryDy=0;endArrow=ERoneToMany;endFill=0;" edge="1" parent="1" source="JigiFPAdXV7mOYjsng4S-66" target="JigiFPAdXV7mOYjsng4S-33">
          <mxGeometry relative="1" as="geometry">
            <mxPoint x="1260" y="1490" as="sourcePoint" />
          </mxGeometry>
        </mxCell>
        <mxCell id="JigiFPAdXV7mOYjsng4S-48" style="edgeStyle=orthogonalEdgeStyle;rounded=0;orthogonalLoop=1;jettySize=auto;html=1;exitX=0.5;exitY=0;exitDx=0;exitDy=0;entryX=0.25;entryY=1;entryDx=0;entryDy=0;endArrow=ERoneToMany;endFill=0;" edge="1" parent="1" source="JigiFPAdXV7mOYjsng4S-66" target="DzdwVPKW61eDhLBlSxj8-156">
          <mxGeometry relative="1" as="geometry">
            <mxPoint x="1320" y="1460" as="sourcePoint" />
          </mxGeometry>
        </mxCell>
        <mxCell id="JigiFPAdXV7mOYjsng4S-50" value="manage" style="shape=rhombus;perimeter=rhombusPerimeter;whiteSpace=wrap;html=1;align=center;" vertex="1" parent="1">
          <mxGeometry x="970" y="1750" width="120" height="60" as="geometry" />
        </mxCell>
        <mxCell id="JigiFPAdXV7mOYjsng4S-53" value="employee_id" style="ellipse;whiteSpace=wrap;html=1;align=center;fontStyle=4;" vertex="1" parent="1">
          <mxGeometry x="970" y="1620" width="100" height="40" as="geometry" />
        </mxCell>
        <mxCell id="JigiFPAdXV7mOYjsng4S-55" value="checkin_machine_id" style="ellipse;whiteSpace=wrap;html=1;align=center;fontStyle=4;" vertex="1" parent="1">
          <mxGeometry x="200" y="1290" width="100" height="40" as="geometry" />
        </mxCell>
        <mxCell id="JigiFPAdXV7mOYjsng4S-57" value="&lt;span style=&quot;border-bottom: 1px dotted&quot;&gt;checkin_machine&lt;/span&gt;" style="ellipse;whiteSpace=wrap;html=1;align=center;" vertex="1" parent="1">
          <mxGeometry x="660" y="1410" width="100" height="40" as="geometry" />
        </mxCell>
        <mxCell id="JigiFPAdXV7mOYjsng4S-59" style="edgeStyle=orthogonalEdgeStyle;rounded=0;orthogonalLoop=1;jettySize=auto;html=1;exitX=0.5;exitY=1;exitDx=0;exitDy=0;entryX=1;entryY=0.5;entryDx=0;entryDy=0;endArrow=none;endFill=0;" edge="1" parent="1" source="JigiFPAdXV7mOYjsng4S-58" target="JigiFPAdXV7mOYjsng4S-57">
          <mxGeometry relative="1" as="geometry" />
        </mxCell>
        <mxCell id="JigiFPAdXV7mOYjsng4S-60" style="edgeStyle=orthogonalEdgeStyle;rounded=0;orthogonalLoop=1;jettySize=auto;html=1;exitX=0.5;exitY=1;exitDx=0;exitDy=0;entryX=0;entryY=0.5;entryDx=0;entryDy=0;endArrow=none;endFill=0;" edge="1" parent="1" source="JigiFPAdXV7mOYjsng4S-58" target="DzdwVPKW61eDhLBlSxj8-165">
          <mxGeometry relative="1" as="geometry" />
        </mxCell>
        <mxCell id="JigiFPAdXV7mOYjsng4S-58" value="Checked-in" style="shape=associativeEntity;whiteSpace=wrap;html=1;align=center;" vertex="1" parent="1">
          <mxGeometry x="710" y="1330" width="140" height="60" as="geometry" />
        </mxCell>
        <mxCell id="JigiFPAdXV7mOYjsng4S-64" style="edgeStyle=orthogonalEdgeStyle;rounded=0;orthogonalLoop=1;jettySize=auto;html=1;exitX=0;exitY=0.5;exitDx=0;exitDy=0;entryX=0.5;entryY=1;entryDx=0;entryDy=0;endArrow=none;endFill=0;" edge="1" parent="1" source="JigiFPAdXV7mOYjsng4S-61" target="JigiFPAdXV7mOYjsng4S-63">
          <mxGeometry relative="1" as="geometry" />
        </mxCell>
        <mxCell id="JigiFPAdXV7mOYjsng4S-65" style="edgeStyle=orthogonalEdgeStyle;rounded=0;orthogonalLoop=1;jettySize=auto;html=1;exitX=0;exitY=0.5;exitDx=0;exitDy=0;entryX=0.5;entryY=0;entryDx=0;entryDy=0;endArrow=none;endFill=0;" edge="1" parent="1" source="JigiFPAdXV7mOYjsng4S-61" target="JigiFPAdXV7mOYjsng4S-62">
          <mxGeometry relative="1" as="geometry" />
        </mxCell>
        <mxCell id="JigiFPAdXV7mOYjsng4S-61" value="Ticket Scanned" style="shape=associativeEntity;whiteSpace=wrap;html=1;align=center;" vertex="1" parent="1">
          <mxGeometry x="-60" y="735" width="140" height="60" as="geometry" />
        </mxCell>
        <mxCell id="JigiFPAdXV7mOYjsng4S-62" value="&lt;span style=&quot;border-bottom: 1px dotted&quot;&gt;ticket&lt;/span&gt;" style="ellipse;whiteSpace=wrap;html=1;align=center;" vertex="1" parent="1">
          <mxGeometry x="-140" y="810" width="100" height="40" as="geometry" />
        </mxCell>
        <mxCell id="JigiFPAdXV7mOYjsng4S-63" value="&lt;span style=&quot;border-bottom: 1px dotted&quot;&gt;ticket_machine&lt;/span&gt;" style="ellipse;whiteSpace=wrap;html=1;align=center;" vertex="1" parent="1">
          <mxGeometry x="-140" y="675" width="100" height="40" as="geometry" />
        </mxCell>
        <mxCell id="JigiFPAdXV7mOYjsng4S-71" style="edgeStyle=orthogonalEdgeStyle;rounded=0;orthogonalLoop=1;jettySize=auto;html=1;exitX=0.5;exitY=1;exitDx=0;exitDy=0;entryX=0.5;entryY=0;entryDx=0;entryDy=0;endArrow=none;endFill=0;" edge="1" parent="1" source="JigiFPAdXV7mOYjsng4S-66" target="JigiFPAdXV7mOYjsng4S-70">
          <mxGeometry relative="1" as="geometry" />
        </mxCell>
        <mxCell id="JigiFPAdXV7mOYjsng4S-72" style="edgeStyle=orthogonalEdgeStyle;rounded=0;orthogonalLoop=1;jettySize=auto;html=1;exitX=0.25;exitY=1;exitDx=0;exitDy=0;entryX=1;entryY=0;entryDx=0;entryDy=0;endArrow=none;endFill=0;" edge="1" parent="1" source="JigiFPAdXV7mOYjsng4S-66" target="JigiFPAdXV7mOYjsng4S-68">
          <mxGeometry relative="1" as="geometry" />
        </mxCell>
        <mxCell id="JigiFPAdXV7mOYjsng4S-66" value="Security Approved" style="shape=associativeEntity;whiteSpace=wrap;html=1;align=center;" vertex="1" parent="1">
          <mxGeometry x="1260" y="1450" width="140" height="60" as="geometry" />
        </mxCell>
        <mxCell id="JigiFPAdXV7mOYjsng4S-67" value="security_id" style="ellipse;whiteSpace=wrap;html=1;align=center;fontStyle=4;" vertex="1" parent="1">
          <mxGeometry x="1070" y="1410" width="100" height="40" as="geometry" />
        </mxCell>
        <mxCell id="JigiFPAdXV7mOYjsng4S-68" value="&lt;span style=&quot;border-bottom: 1px dotted&quot;&gt;security&lt;/span&gt;" style="ellipse;whiteSpace=wrap;html=1;align=center;" vertex="1" parent="1">
          <mxGeometry x="1200" y="1530" width="100" height="40" as="geometry" />
        </mxCell>
        <mxCell id="JigiFPAdXV7mOYjsng4S-70" value="&lt;span style=&quot;border-bottom: 1px dotted&quot;&gt;customer&lt;/span&gt;" style="ellipse;whiteSpace=wrap;html=1;align=center;" vertex="1" parent="1">
          <mxGeometry x="1310" y="1530" width="100" height="40" as="geometry" />
        </mxCell>
      </root>
    </mxGraphModel>
  </diagram>
</mxfile>
